<?xml version="1.0" standalone="no"?>
<!DOCTYPE svg PUBLIC "-//W3C//DTD SVG 20010904//EN"
 "http://www.w3.org/TR/2001/REC-SVG-20010904/DTD/svg10.dtd">
<svg version="1.0" xmlns="http://www.w3.org/2000/svg"
 width="626.000000pt" height="562.000000pt" viewBox="0 0 626.000000 562.000000"
 preserveAspectRatio="xMidYMid meet">

<g transform="translate(0.000000,562.000000) scale(0.100000,-0.100000)"
fill="#000000" stroke="none">
<path d="M0 2810 l0 -2810 3130 0 3130 0 0 2810 0 2810 -3130 0 -3130 0 0
-2810z m3460 2604 c0 -9 -5 -14 -12 -12 -18 6 -21 28 -4 28 9 0 16 -7 16 -16z
m1570 -20 c0 -16 -26 -19 -35 -4 -3 6 -4 14 0 20 8 13 35 1 35 -16z m-4420
-313 c0 -5 -6 -14 -14 -20 -10 -9 -15 -8 -19 3 -3 8 -3 17 0 20 9 9 33 7 33
-3z m4260 -249 c13 -10 23 -33 27 -59 5 -35 2 -45 -20 -67 -35 -35 -89 -35
-122 -1 -32 31 -34 96 -5 125 25 25 89 27 120 2z m-4160 -52 c0 -5 -4 -10 -10
-10 -5 0 -10 5 -10 10 0 6 5 10 10 10 6 0 10 -4 10 -10z m5450 -170 c0 -5 -4
-10 -10 -10 -5 0 -10 5 -10 10 0 6 5 10 10 10 6 0 10 -4 10 -10z m-4330 -90
c0 -14 -7 -20 -22 -20 -20 0 -21 1 -3 20 10 11 20 20 22 20 1 0 3 -9 3 -20z
m2988 -3 c5 -23 -10 -21 -26 4 -12 18 -11 20 5 17 10 -2 19 -11 21 -21z
m-2638 -7 c0 -5 -4 -10 -10 -10 -5 0 -10 5 -10 10 0 6 5 10 10 10 6 0 10 -4
10 -10z m3266 -271 c10 -17 -13 -36 -27 -22 -12 12 -4 33 11 33 5 0 12 -5 16
-11z m-872 -64 c3 -8 2 -15 -3 -15 -5 0 -14 7 -21 15 -10 12 -10 15 3 15 8 0
17 -7 21 -15z m-1064 -140 c174 -22 296 -65 478 -167 107 -60 230 -160 343
-281 46 -49 124 -204 144 -287 9 -36 20 -81 25 -100 57 -229 65 -304 46 -440
-21 -147 -27 -168 -89 -328 -53 -136 -64 -154 -221 -350 -29 -37 -82 -85 -135
-121 -47 -33 -98 -69 -113 -81 -138 -106 -511 -201 -673 -171 -33 6 -110 18
-172 26 -151 20 -218 43 -326 111 -220 137 -349 253 -444 398 -60 92 -121 234
-148 344 -26 107 -27 120 -20 260 3 81 15 197 25 258 16 96 28 130 81 239 70
145 168 298 219 341 19 17 71 57 115 89 44 32 100 76 125 96 57 47 184 113
259 134 52 15 249 41 331 44 19 0 87 -6 150 -14z m2083 -178 c-3 -5 -10 -4
-15 1 -6 6 -7 16 -3 22 6 9 9 9 16 -1 4 -7 5 -17 2 -22z m-3427 -110 c-55 -77
-76 -97 -76 -73 0 35 110 172 118 147 2 -6 -17 -39 -42 -74z m-1796 -191 c0
-8 -4 -18 -10 -21 -5 -3 -10 3 -10 14 0 12 5 21 10 21 6 0 10 -6 10 -14z
m4845 -36 c3 -5 1 -10 -4 -10 -6 0 -11 5 -11 10 0 6 2 10 4 10 3 0 8 -4 11
-10z m-4207 -72 c-4 -29 -38 -38 -38 -10 0 22 8 32 27 32 9 0 13 -8 11 -22z
m57 -204 c0 -10 -8 -20 -17 -22 -18 -3 -26 27 -11 42 12 11 28 0 28 -20z m121
-681 c-10 -10 -19 5 -10 18 6 11 8 11 12 0 2 -7 1 -15 -2 -18z m29 -153 c0
-18 -6 -26 -22 -28 -18 -3 -23 1 -23 21 0 28 9 39 30 35 9 -2 15 -14 15 -28z
m559 5 c16 -24 22 -75 9 -75 -19 0 -43 37 -43 67 0 39 12 42 34 8z m3367 -18
c-1 -4 -1 -14 -1 -22 0 -8 -4 -15 -10 -15 -5 0 -10 12 -10 26 0 14 5 24 11 22
6 -2 10 -7 10 -11z m-4301 -122 c0 -8 -4 -15 -10 -15 -5 0 -10 7 -10 15 0 8 5
15 10 15 6 0 10 -7 10 -15z m-200 -146 c0 -25 -33 -22 -38 4 -2 12 3 17 17 17
15 0 21 -6 21 -21z m3854 -157 c-32 -43 -76 -83 -83 -77 -5 5 49 85 83 123 34
38 33 -1 0 -46z m-2917 -28 c20 -4 33 -15 40 -35 6 -16 19 -29 28 -29 9 0 40
-16 69 -35 29 -19 62 -35 72 -35 24 0 39 -10 47 -33 4 -10 27 -30 51 -45 39
-23 46 -33 52 -70 4 -30 14 -48 34 -62 25 -18 28 -25 26 -74 -1 -30 -4 -58 -8
-61 -3 -3 5 -17 18 -30 35 -35 31 -63 -8 -73 -48 -12 -58 -63 -28 -137 26 -63
23 -89 -8 -93 -13 -2 -32 -12 -43 -23 -11 -11 -33 -19 -53 -19 -32 0 -39 -6
-82 -71 -27 -39 -54 -73 -61 -75 -7 -2 -21 -7 -30 -10 -28 -10 -86 -11 -105
-2 -12 6 -20 3 -28 -12 -13 -24 -23 -25 -43 -6 -14 15 -62 11 -84 -6 -7 -5
-17 -7 -23 -3 -5 3 -13 -1 -16 -9 -8 -22 -24 -20 -24 2 0 30 -30 49 -105 68
-98 24 -147 64 -174 146 -12 34 -21 72 -21 84 0 11 -13 38 -30 59 -27 34 -30
45 -30 107 0 37 -5 77 -12 88 -11 16 -9 23 14 47 25 27 29 43 46 158 5 36 12
51 25 53 9 2 17 -1 17 -7 0 -7 10 -5 25 5 21 13 25 24 25 63 0 25 4 51 8 57
16 25 94 55 135 52 25 -1 42 2 45 10 6 20 49 14 55 -7 4 -17 10 -18 51 -10 60
11 66 15 66 43 0 37 11 41 67 30z m3530 -289 c-4 -8 -11 -15 -17 -15 -14 0
-13 27 3 33 16 6 21 1 14 -18z m483 -206 c0 -5 -9 -9 -20 -9 -22 0 -27 16 -7
23 15 5 27 -1 27 -14z m-5262 -51 c-6 -18 -28 -21 -28 -4 0 9 7 16 16 16 9 0
14 -5 12 -12z m2995 -445 c-7 -2 -21 -2 -30 0 -10 3 -4 5 12 5 17 0 24 -2 18
-5z m1468 -56 c-13 -13 -26 -3 -16 12 3 6 11 8 17 5 6 -4 6 -10 -1 -17z
m-2661 3 c0 -5 -4 -10 -9 -10 -6 0 -13 5 -16 10 -3 6 1 10 9 10 9 0 16 -4 16
-10z m-1412 -63 c3 -25 0 -28 -20 -25 -17 2 -24 11 -26 31 -3 25 0 28 20 25
17 -2 24 -11 26 -31z m186 -3 c9 -24 7 -34 -8 -34 -18 0 -39 27 -31 40 9 15
32 12 39 -6z m500 -27 c24 -18 17 -53 -9 -49 -29 5 -38 17 -30 41 7 24 15 26
39 8z m2476 -49 c0 -5 -11 -8 -25 -8 -29 0 -33 15 -8 29 17 9 32 -1 33 -21z
m-3110 -90 c0 -27 -13 -22 -39 13 -19 25 -21 33 -10 40 16 10 48 -26 49 -53z
m1137 16 c3 -8 1 -20 -4 -25 -12 -12 -48 14 -39 29 10 17 36 15 43 -4z m-577
-69 c10 -12 9 -16 -5 -21 -19 -8 -40 9 -31 25 10 15 21 14 36 -4z m3106 -71
c-14 -10 -23 -11 -30 -3 -8 7 -5 15 8 25 14 10 23 11 30 3 8 -7 5 -15 -8 -25z
m-1231 -14 c0 -18 -43 -26 -57 -12 -16 16 2 33 30 30 16 -2 27 -9 27 -18z
m-2645 -49 c0 -24 -25 -34 -40 -16 -15 18 -5 35 21 35 12 0 19 -7 19 -19z
m1055 -140 c7 -12 -12 -24 -25 -16 -11 7 -4 25 10 25 5 0 11 -4 15 -9z m-241
-180 c3 -5 0 -11 -8 -14 -15 -6 -26 1 -26 15 0 11 27 10 34 -1z m-164 -51 c0
-5 -5 -10 -11 -10 -5 0 -7 5 -4 10 3 6 8 10 11 10 2 0 4 -4 4 -10z"/>
<path d="M3202 3860 c-116 -25 -270 -91 -383 -166 -86 -57 -225 -202 -277
-289 -47 -80 -106 -237 -128 -338 -23 -112 -19 -287 11 -403 29 -116 112 -291
179 -381 131 -174 337 -309 561 -369 107 -28 361 -26 469 4 104 29 265 107
343 166 189 143 331 365 377 588 21 100 21 332 1 425 -74 348 -333 623 -695
738 -75 24 -104 28 -250 31 -91 2 -184 -1 -208 -6z m201 -347 c-7 -2 -21 -2
-30 0 -10 3 -4 5 12 5 17 0 24 -2 18 -5z m-163 -13 c0 -5 -5 -10 -11 -10 -5 0
-7 5 -4 10 3 6 8 10 11 10 2 0 4 -4 4 -10z m25 0 c3 -5 1 -10 -4 -10 -6 0 -11
5 -11 10 0 6 2 10 4 10 3 0 8 -4 11 -10z m310 -9 c3 -5 1 -12 -5 -16 -5 -3
-10 1 -10 9 0 18 6 21 15 7z m-405 -21 c-19 -13 -30 -13 -30 0 0 6 10 10 23
10 18 0 19 -2 7 -10z m460 0 c0 -5 -2 -10 -4 -10 -3 0 -8 5 -11 10 -3 6 -1 10
4 10 6 0 11 -4 11 -10z m25 -10 c3 -5 1 -10 -4 -10 -6 0 -11 5 -11 10 0 6 2
10 4 10 3 0 8 -4 11 -10z m-526 -3 c-24 -19 -109 -65 -109 -59 0 8 90 61 104
62 5 0 7 -1 5 -3z m266 -7 c3 -5 2 -10 -4 -10 -5 0 -13 5 -16 10 -3 6 -2 10 4
10 5 0 13 -4 16 -10z m120 -10 c3 -5 -1 -10 -9 -10 -9 0 -16 5 -16 10 0 6 4
10 9 10 6 0 13 -4 16 -10z m-245 -4 c0 -2 -7 -6 -15 -10 -8 -3 -15 -1 -15 4 0
6 7 10 15 10 8 0 15 -2 15 -4z m440 0 c0 -3 -4 -8 -10 -11 -5 -3 -10 -1 -10 4
0 6 5 11 10 11 6 0 10 -2 10 -4z m11 -29 c-10 -9 -11 -8 -5 6 3 10 9 15 12 12
3 -3 0 -11 -7 -18z m-216 -8 c-4 -5 -1 -9 5 -9 6 0 9 -4 5 -10 -10 -16 -33 0
-28 21 3 10 9 16 14 13 5 -3 7 -10 4 -15z m127 -7 c-7 -2 -10 -8 -6 -13 3 -5
0 -9 -5 -9 -13 0 -13 3 -5 24 3 9 11 13 17 9 8 -5 7 -8 -1 -11z m109 -5 c-10
-9 -11 -8 -5 6 3 10 9 15 12 12 3 -3 0 -11 -7 -18z m44 -7 c10 -11 14 -20 9
-20 -5 0 -15 9 -22 20 -7 11 -11 20 -9 20 2 0 12 -9 22 -20z m-765 -10 c0 -5
-6 -7 -14 -4 -8 3 -30 -11 -51 -31 -20 -20 -38 -35 -40 -33 -5 5 61 75 77 81
15 5 28 -1 28 -13z m257 14 c-3 -3 -12 -4 -19 -1 -8 3 -5 6 6 6 11 1 17 -2 13
-5z m-117 -9 c0 -2 -10 -10 -22 -16 -21 -11 -22 -11 -9 4 13 16 31 23 31 12z
m245 -5 c4 -6 -5 -10 -19 -10 -14 0 -26 5 -26 10 0 6 9 10 19 10 11 0 23 -4
26 -10z m407 -32 c-7 -7 -12 -8 -12 -2 0 6 3 14 7 17 3 4 9 5 12 2 2 -3 -1
-11 -7 -17z m-62 -9 c0 -6 -4 -7 -10 -4 -5 3 -10 11 -10 16 0 6 5 7 10 4 6 -3
10 -11 10 -16z m-550 3 c0 -8 -25 -23 -65 -41 -5 -2 -3 4 5 13 8 10 23 22 35
26 26 11 25 11 25 2z m110 -1 c0 -5 10 -7 23 -4 22 5 22 5 2 -10 -19 -15 -19
-16 -1 -17 12 0 16 -5 12 -15 -3 -8 -1 -15 5 -15 6 0 8 -4 4 -9 -3 -5 -1 -12
5 -16 6 -4 8 -10 6 -14 -3 -4 -1 -13 3 -19 8 -14 41 -6 41 10 0 6 -7 7 -16 4
-12 -4 -15 0 -12 17 2 15 11 23 29 25 23 3 26 0 24 -22 -3 -21 0 -24 18 -17
26 10 35 31 13 31 -9 0 -16 5 -16 10 0 6 9 10 20 10 13 0 20 7 20 19 0 22 -20
32 -49 24 -22 -5 -29 -23 -10 -23 5 0 7 -5 3 -11 -4 -8 -9 -8 -17 0 -6 6 -22
11 -36 11 -39 0 -12 15 53 30 53 13 60 12 71 -3 7 -9 16 -17 20 -17 4 0 13 -7
19 -15 6 -9 25 -17 41 -19 17 -2 33 -4 38 -5 4 0 7 -5 7 -11 0 -5 -8 -6 -17
-3 -12 5 -15 2 -10 -10 3 -9 3 -17 -1 -17 -4 0 -8 -10 -9 -22 -1 -11 -8 -25
-15 -31 -9 -6 -8 -7 5 -3 11 4 29 -2 44 -14 14 -11 34 -20 44 -20 11 0 19 -4
19 -10 0 -5 4 -10 9 -10 6 0 9 9 8 21 -1 14 -16 27 -49 42 -62 28 -62 41 0 19
48 -17 59 -24 93 -54 10 -10 23 -18 27 -18 4 0 16 -13 25 -30 11 -18 14 -30 7
-30 -7 0 -8 -7 -3 -17 5 -10 8 -31 7 -46 -1 -31 20 -47 38 -29 12 12 1 55 -13
47 -5 -4 -9 1 -9 9 0 33 34 12 43 -26 4 -14 10 -34 13 -45 4 -13 3 -14 -3 -5
-12 15 -43 5 -43 -14 0 -8 5 -14 10 -14 6 0 10 -11 10 -25 0 -14 -4 -25 -10
-25 -5 0 -10 7 -10 15 0 8 -5 24 -12 34 -10 16 -14 17 -25 6 -20 -21 3 -63 36
-67 18 -2 27 -10 29 -25 2 -13 7 -23 12 -23 4 0 6 -10 2 -22 -3 -12 -1 -19 5
-15 14 9 12 -26 -3 -40 -10 -10 -13 -10 -17 0 -3 8 -11 3 -23 -13 -40 -55 -89
-97 -81 -71 1 5 0 9 -3 9 -3 0 -17 5 -32 11 -23 9 -28 8 -28 -5 0 -11 6 -14
23 -8 21 6 21 6 5 -13 -10 -11 -18 -24 -18 -29 0 -5 5 -1 11 9 12 21 29 22 29
2 0 -8 -5 -15 -11 -15 -6 0 -9 -8 -7 -18 3 -11 -2 -23 -13 -30 -27 -17 -31
-15 -24 9 l7 22 -31 -23 c-31 -21 -31 -23 -16 -46 8 -13 12 -25 8 -25 -64 -10
-94 -22 -114 -47 -18 -23 -27 -27 -67 -24 -82 6 -126 5 -169 -3 -32 -6 -43 -4
-43 5 0 8 8 10 22 7 26 -7 68 1 68 13 0 11 -67 33 -79 26 -5 -3 -20 3 -32 14
-13 11 -19 19 -12 20 6 0 15 -4 18 -10 3 -5 11 -10 17 -10 7 0 6 6 -2 15 -7 8
-9 15 -4 16 5 1 -2 4 -16 8 -58 17 -66 -12 -13 -51 41 -31 26 -39 -16 -9 -16
12 -39 18 -56 16 -35 -3 -75 20 -75 45 0 10 -7 20 -15 24 -8 3 -14 9 -14 13 4
16 -14 43 -27 43 -8 0 -14 2 -14 4 0 2 -3 13 -6 23 -5 16 -4 16 10 -1 16 -20
16 -20 16 0 0 33 -24 75 -39 69 -8 -3 -23 4 -33 15 -10 11 -14 20 -8 20 5 0
10 5 10 11 0 6 -7 9 -15 5 -8 -3 -15 -1 -15 3 0 5 5 11 12 13 8 3 5 16 -10 42
-23 40 -28 66 -13 82 5 5 11 18 14 29 5 19 5 19 12 -2 6 -20 10 -21 29 -11 11
7 24 11 28 10 4 -1 5 5 2 13 -4 8 -10 15 -15 15 -5 0 -9 5 -9 11 0 6 6 9 14 6
8 -3 17 1 20 9 4 11 0 15 -16 12 -16 -2 -24 -12 -28 -33 -7 -41 -20 -17 -16
29 3 38 16 63 16 32 0 -9 4 -15 9 -12 5 3 7 15 4 26 -3 11 0 26 6 34 8 10 9
16 1 21 -5 3 -10 0 -10 -8 0 -8 -7 -20 -15 -27 -11 -9 -15 -9 -15 -1 0 21 20
51 34 51 8 0 17 7 20 16 14 35 15 5 2 -38 -7 -25 -10 -51 -7 -57 4 -6 14 18
21 54 14 69 20 78 57 89 30 10 22 -15 -10 -29 -12 -6 -24 -21 -25 -35 -3 -20
-2 -22 11 -12 9 8 17 9 19 3 1 -5 15 -13 31 -16 24 -6 27 -4 27 16 -1 22 -2
22 -13 7 -21 -27 -44 -6 -29 26 6 14 16 26 22 26 6 0 8 -4 5 -10 -3 -5 3 -10
13 -10 21 0 36 25 26 41 -3 5 -13 5 -25 -1 -24 -13 -24 -2 0 28 23 26 29 28
27 6 -2 -25 21 -28 34 -4 13 24 4 44 -16 36 -25 -9 -15 12 15 33 27 19 53 29
38 15 -7 -8 47 -64 62 -64 17 0 13 17 -5 24 -16 6 -16 8 0 24 26 29 20 45 -14
40 -32 -5 -42 7 -12 15 30 8 42 7 42 -2z m296 -6 c25 -19 15 -19 -27 0 -25 10
-29 14 -13 15 11 0 29 -7 40 -15z m-576 -10 c-7 -9 -15 -13 -17 -11 -7 7 7 26
19 26 6 0 6 -6 -2 -15z m830 -4 c0 -5 -7 -12 -16 -15 -14 -5 -15 -4 -4 9 14
17 20 19 20 6z m-270 -11 c0 -5 -2 -10 -4 -10 -3 0 -8 5 -11 10 -3 6 -1 10 4
10 6 0 11 -4 11 -10z m130 -6 c0 -2 -7 -4 -15 -4 -8 0 -15 4 -15 10 0 5 7 7
15 4 8 -4 15 -8 15 -10z m-643 -8 c-5 -16 -24 -18 -30 -4 -3 9 3 14 14 14 11
0 18 -5 16 -10z m824 -49 c-9 -9 -11 -8 -6 6 8 20 -5 22 -25 5 -12 -11 -12
-10 -2 3 7 9 9 25 6 35 -5 12 2 8 16 -9 17 -22 20 -31 11 -40z m-991 43 c0 -5
-3 -10 -7 -10 -5 0 -17 -14 -28 -30 -25 -38 -42 -40 -18 -2 32 50 53 66 53 42z
m781 -7 c13 -16 12 -17 -3 -4 -17 13 -22 21 -14 21 2 0 10 -8 17 -17z m-601
-13 c0 -5 -5 -10 -11 -10 -5 0 -7 5 -4 10 3 6 8 10 11 10 2 0 4 -4 4 -10z
m585 -10 c10 -11 15 -20 10 -20 -4 0 -2 -7 5 -15 9 -11 9 -15 1 -15 -6 0 -14
8 -18 18 -3 9 -13 25 -21 35 -21 24 1 22 23 -3z m-570 -20 c-10 -11 -23 -20
-28 -20 -6 0 0 11 13 25 27 29 42 25 15 -5z m703 18 c14 -14 16 -28 2 -28 -5
0 -14 9 -20 20 -12 22 -1 27 18 8z m-18 -29 c0 -6 -4 -7 -10 -4 -5 3 -10 11
-10 16 0 6 5 7 10 4 6 -3 10 -11 10 -16z m-810 7 c0 -3 -4 -8 -10 -11 -5 -3
-10 -1 -10 4 0 6 5 11 10 11 6 0 10 -2 10 -4z m802 -52 c-4 -21 -7 -23 -21
-12 -26 20 -27 22 -8 15 23 -9 22 6 -3 28 -14 13 -20 14 -20 5 0 -7 -3 -11 -6
-7 -3 3 -3 11 1 16 4 8 15 6 34 -5 21 -13 27 -22 23 -40z m-662 36 c0 -5 -4
-10 -10 -10 -5 0 -10 5 -10 10 0 6 5 10 10 10 6 0 10 -4 10 -10z m-105 -30
c-10 -11 -20 -18 -23 -15 -3 3 3 14 13 25 10 11 20 18 23 15 3 -3 -3 -14 -13
-25z m-155 -28 c3 -3 -4 -2 -15 2 -16 5 -23 0 -32 -25 -7 -18 -10 -36 -7 -40
3 -5 -2 -9 -10 -9 -20 0 -20 -1 4 55 21 49 20 49 60 17z m800 12 c0 -14 -3
-14 -15 -4 -8 7 -15 14 -15 16 0 2 7 4 15 4 8 0 15 -7 15 -16z m239 -37 c-8
-7 -20 -12 -28 -9 -8 3 -11 0 -7 -7 4 -6 3 -11 -3 -11 -5 0 -16 -3 -25 -6 -10
-4 -16 -1 -16 10 0 10 6 13 18 9 14 -5 15 -3 5 8 -7 7 -13 19 -13 27 0 12 3
12 15 2 12 -10 15 -10 15 1 0 8 6 5 16 -7 14 -18 15 -18 8 6 -6 24 -5 24 11 8
15 -14 16 -19 4 -31z m71 23 c0 -5 -5 -10 -11 -10 -5 0 -7 5 -4 10 3 6 8 10
11 10 2 0 4 -4 4 -10z m-1086 -25 c-6 -16 -24 -21 -24 -7 0 11 11 22 21 22 5
0 6 -7 3 -15z m56 -3 c0 -5 -7 -17 -15 -28 -15 -19 -20 -8 -9 20 6 17 24 22
24 8z m1060 -52 c0 -5 -10 -10 -22 -9 -22 0 -22 1 -3 9 11 5 21 9 23 9 1 1 2
-3 2 -9z m-1221 -32 c-5 -18 -12 -57 -14 -85 -4 -45 -2 -53 13 -54 16 -1 16
-2 0 -6 -14 -3 -16 -14 -13 -56 2 -29 4 -58 4 -66 1 -9 9 -11 24 -8 21 6 21 5
3 -8 -19 -15 -19 -16 -2 -71 15 -49 20 -55 39 -50 21 5 21 5 3 -10 -18 -13
-21 -12 -38 14 -10 16 -20 39 -22 53 -2 13 -5 24 -6 24 -13 0 -25 280 -12 299
7 12 9 18 11 41 0 8 5 15 10 15 6 0 6 -13 0 -32z m1168 -19 c1 -15 0 -17 -3
-6 -3 9 -10 15 -15 11 -5 -3 -6 -10 -3 -16 5 -7 2 -8 -6 -3 -7 4 -16 2 -22 -6
-8 -11 -9 -10 -5 3 3 9 3 19 -1 21 -4 2 -1 2 6 1 6 -2 12 3 12 10 0 25 35 11
37 -15z m-1086 -32 c-8 -8 -11 -5 -11 9 0 27 14 41 18 19 2 -9 -1 -22 -7 -28z
m61 -2 c-2 -14 -8 -25 -13 -25 -10 0 -12 21 -3 44 9 24 22 10 16 -19z m923 15
c3 -5 1 -10 -4 -10 -6 0 -11 5 -11 10 0 6 2 10 4 10 3 0 8 -4 11 -10z m175
-10 c0 -5 -8 -10 -17 -10 -15 0 -16 2 -3 10 19 12 20 12 20 0z m-121 -87 c1
25 21 11 22 -16 1 -20 2 -20 9 3 l8 25 1 -27 c1 -21 -4 -28 -18 -28 -11 0 -22
6 -25 13 -4 6 -4 2 -2 -10 2 -13 2 -23 0 -23 -10 0 -23 51 -17 67 6 15 7 15
14 -3 7 -17 8 -17 8 -1z m71 -10 c0 -20 -3 -24 -11 -16 -7 7 -9 19 -6 27 10
24 17 19 17 -11z m-140 7 c0 -5 -2 -10 -4 -10 -3 0 -8 5 -11 10 -3 6 -1 10 4
10 6 0 11 -4 11 -10z m-950 -30 c0 -16 -4 -30 -10 -30 -5 0 -10 14 -10 30 0
17 5 30 10 30 6 0 10 -13 10 -30z m-30 6 c0 -8 -7 -17 -16 -20 -23 -9 -24 -8
-24 14 0 13 7 20 20 20 11 0 20 -6 20 -14z m60 -6 c0 -5 -4 -10 -10 -10 -5 0
-10 5 -10 10 0 6 5 10 10 10 6 0 10 -4 10 -10z m1117 4 c-3 -3 -12 -4 -19 -1
-8 3 -5 6 6 6 11 1 17 -2 13 -5z m-1102 -105 c6 -28 1 -48 -10 -37 -3 2 -8 19
-11 36 -8 42 12 43 21 1z m1011 15 c-5 -14 -4 -15 9 -4 12 10 15 10 15 -1 0
-20 -20 -49 -20 -30 0 11 -3 11 -15 1 -13 -10 -15 -9 -15 12 0 26 7 38 23 38
5 0 6 -7 3 -16z m84 7 c0 -5 -9 -7 -20 -4 -11 3 -20 7 -20 9 0 2 9 4 20 4 11
0 20 -4 20 -9z m-1150 -47 c0 -14 -4 -22 -10 -19 -5 3 -10 17 -10 31 0 14 4
22 10 19 6 -3 10 -17 10 -31z m-33 -6 c-3 -7 -5 -2 -5 12 0 14 2 19 5 13 2 -7
2 -19 0 -25z m1173 2 c0 -5 -5 -10 -11 -10 -5 0 -7 5 -4 10 3 6 8 10 11 10 2
0 4 -4 4 -10z m-1190 -32 c0 -5 -4 -8 -10 -8 -5 0 -10 10 -10 23 0 18 2 19 10
7 5 -8 10 -18 10 -22z m1185 -6 c-3 -3 -11 0 -18 7 -9 10 -8 11 6 5 10 -3 15
-9 12 -12z m-158 -12 c-3 -11 -1 -20 4 -20 5 0 9 4 9 9 0 5 8 7 19 4 13 -3 17
-11 14 -24 -5 -18 -23 -27 -23 -11 0 4 -10 8 -21 9 -29 3 -32 8 -19 32 14 27
24 27 17 1z m-837 -2 c0 -5 -5 -8 -11 -8 -6 0 -8 -7 -5 -16 4 -9 1 -14 -6 -12
-6 2 -15 13 -19 25 -6 18 -4 21 17 19 13 0 24 -4 24 -8z m-70 -51 c0 -5 -7 -4
-15 3 -8 7 -15 20 -15 29 1 13 3 13 15 -3 8 -11 15 -24 15 -29z m983 23 c-6
-22 -23 -38 -23 -21 0 17 12 41 20 41 5 0 6 -9 3 -20z m-1030 -30 c-3 -11 -9
-20 -14 -20 -14 0 -11 28 4 33 6 3 13 6 14 6 0 1 -1 -8 -4 -19z m883 -29 c23
19 26 4 5 -22 -11 -13 -20 -19 -21 -12 0 6 -2 17 -3 25 -2 7 -2 9 1 5 2 -4 10
-3 18 4z m-926 -37 c0 -7 6 -19 13 -26 6 -7 25 -31 42 -53 41 -56 53 -67 65
-60 6 4 7 -1 3 -11 -5 -14 -14 -8 -50 32 -57 64 -59 67 -83 106 -24 39 -26 55
-5 38 8 -7 15 -18 15 -26z m195 -22 c-7 -7 -45 29 -45 41 0 6 11 0 25 -13 14
-13 23 -26 20 -28z m905 38 c0 -5 -2 -10 -4 -10 -3 0 -8 5 -11 10 -3 6 -1 10
4 10 6 0 11 -4 11 -10z m-116 -25 c-6 -18 -5 -19 11 -5 16 13 18 13 13 0 -2
-8 -15 -16 -27 -16 -17 -1 -21 3 -18 17 3 10 0 20 -7 23 -6 2 -1 3 11 3 18 -1
22 -5 17 -22z m-104 -1 c0 -1 -12 -9 -26 -19 -22 -14 -28 -15 -35 -4 -15 23
-10 28 26 26 19 -1 35 -3 35 -3z m-740 -31 c0 -13 -3 -13 -15 -3 -8 7 -15 16
-15 21 0 5 7 6 15 3 8 -4 15 -13 15 -21z m720 -18 c-7 -8 -17 -15 -22 -15 -6
0 -5 7 2 15 7 8 17 15 22 15 6 0 5 -7 -2 -15z m16 -24 c-13 -15 -14 -20 -4
-24 7 -3 9 -6 3 -6 -5 0 -17 4 -25 9 -13 8 -12 11 5 24 28 22 41 20 21 -3z
m-631 -11 c27 -30 11 -35 -21 -6 -21 18 -24 25 -13 26 9 0 24 -9 34 -20z m220
-11 c-7 -10 -35 -1 -35 11 0 5 9 6 20 3 11 -3 17 -9 15 -14z m295 17 c0 -3 -4
-8 -10 -11 -5 -3 -10 -1 -10 4 0 6 5 11 10 11 6 0 10 -2 10 -4z m-542 -41 c0
-27 -5 -30 -27 -16 -12 8 -12 11 0 25 20 22 27 20 27 -9z m558 16 c-8 -12 -46
-21 -46 -11 0 9 18 18 38 19 7 1 11 -3 8 -8z m144 -1 c0 -5 -8 -10 -17 -10
-15 0 -16 2 -3 10 19 12 20 12 20 0z m-565 -10 c3 -5 -1 -10 -9 -10 -8 0 -18
5 -21 10 -3 6 1 10 9 10 8 0 18 -4 21 -10z m-199 -26 c-4 -10 2 -24 15 -35 12
-11 20 -22 16 -25 -3 -3 -18 5 -33 19 -23 22 -25 27 -13 41 18 20 23 20 15 0z
m397 9 c-7 -2 -19 -2 -25 0 -7 3 -2 5 12 5 14 0 19 -2 13 -5z m257 -45 c0 -4
-5 -8 -11 -8 -5 0 -7 5 -3 11 4 7 0 9 -14 5 -11 -4 -23 -2 -27 4 -3 5 1 10 9
10 10 0 13 6 9 18 -4 12 1 10 15 -7 12 -13 22 -28 22 -33z m160 37 c-7 -8 -17
-15 -22 -15 -11 0 14 29 26 30 5 0 3 -7 -4 -15z m-300 -5 c-19 -13 -30 -13
-30 0 0 6 10 10 23 10 18 0 19 -2 7 -10z m-75 -10 c-3 -5 -22 -10 -41 -10 -21
0 -33 4 -29 10 3 6 22 10 41 10 21 0 33 -4 29 -10z m335 -5 c7 -9 8 -15 2 -15
-5 0 -12 7 -16 15 -3 8 -4 15 -2 15 2 0 9 -7 16 -15z m-610 -5 c0 -5 -2 -10
-4 -10 -3 0 -8 5 -11 10 -3 6 -1 10 4 10 6 0 11 -4 11 -10z m368 -10 c-7 -11
-14 -16 -16 -10 -2 6 -8 8 -13 4 -5 -3 -9 -1 -9 5 0 8 16 16 43 20 4 0 2 -8
-5 -19z m-238 0 c0 -5 -7 -10 -15 -10 -8 0 -15 5 -15 10 0 6 7 10 15 10 8 0
15 -4 15 -10z m460 -11 c0 -6 -4 -7 -10 -4 -5 3 -10 11 -10 16 0 6 5 7 10 4 6
-3 10 -11 10 -16z m-30 -4 c11 -13 10 -14 -4 -9 -12 5 -15 2 -10 -10 3 -9 1
-16 -5 -16 -6 0 -11 2 -11 4 0 2 -3 12 -7 22 -4 12 -3 15 5 10 7 -4 12 -2 12
3 0 15 5 14 20 -4z m-315 -5 c-3 -5 -1 -10 4 -10 6 0 11 -4 11 -10 0 -11 -33
-14 -43 -4 -3 3 0 12 6 20 14 15 31 19 22 4z m265 -10 c0 -5 -4 -10 -10 -10
-5 0 -10 5 -10 10 0 6 5 10 10 10 6 0 10 -4 10 -10z m-590 -21 c0 -14 -16 -11
-29 5 -10 12 -8 13 8 9 12 -3 21 -9 21 -14z m26 6 c-3 -8 2 -19 12 -24 9 -6
13 -10 7 -11 -20 0 -35 17 -29 33 3 9 8 17 11 17 3 0 3 -7 -1 -15z m431 -6
c-14 -8 -22 -8 -30 0 -8 8 -3 11 19 11 25 -1 27 -2 11 -11z m113 -4 c7 -9 8
-15 2 -15 -5 0 -12 7 -16 15 -3 8 -4 15 -2 15 2 0 9 -7 16 -15z m-370 -5 c0
-5 -2 -10 -4 -10 -3 0 -8 5 -11 10 -3 6 -1 10 4 10 6 0 11 -4 11 -10z m132
-12 c-9 -9 -15 -9 -24 0 -9 9 -7 12 12 12 19 0 21 -3 12 -12z m218 -7 c0 -5
-9 -11 -20 -14 -13 -3 -20 0 -20 10 0 8 5 11 10 8 6 -3 10 -1 10 5 0 6 5 8 10
5 6 -3 10 -10 10 -14z m-428 -15 c4 3 8 0 8 -5 0 -13 0 -13 -39 0 -17 6 -31
15 -31 19 0 5 12 3 27 -5 15 -8 30 -12 35 -9z m372 9 c3 -8 1 -15 -4 -15 -6 0
-10 7 -10 15 0 8 2 15 4 15 2 0 6 -7 10 -15z m-153 -47 c-23 -10 -31 -9 -31 2
0 6 7 10 15 10 8 0 15 8 16 18 0 14 2 14 8 -3 6 -14 4 -22 -8 -27z m-160 22
c6 0 8 -4 5 -9 -8 -12 -46 -2 -46 11 0 6 7 7 16 4 9 -3 20 -6 25 -6z m226 -12
c-3 -8 -6 -5 -6 6 -1 11 2 17 5 13 3 -3 4 -12 1 -19z m53 12 c-20 -13 -43 -13
-35 0 3 6 16 10 28 10 18 0 19 -2 7 -10z m-190 -15 c0 -7 -15 -9 -35 -7 -19 2
-35 7 -35 11 0 3 16 6 35 6 19 0 35 -5 35 -10z"/>
<path d="M3510 3290 c0 -5 5 -10 10 -10 6 0 10 5 10 10 0 6 -4 10 -10 10 -5 0
-10 -4 -10 -10z"/>
<path d="M3516 3271 c-14 -5 -16 -10 -8 -15 7 -4 10 -12 7 -17 -4 -5 0 -9 9
-9 8 0 17 6 19 13 4 9 8 8 16 -3 5 -8 13 -11 17 -7 5 5 -34 51 -40 46 -1 0
-10 -4 -20 -8z"/>
<path d="M3220 3256 c0 -9 5 -16 10 -16 6 0 10 4 10 9 0 6 -4 13 -10 16 -5 3
-10 -1 -10 -9z"/>
<path d="M3514 3212 c-7 -4 -8 -15 -3 -27 4 -11 8 -15 8 -8 1 7 8 10 16 7 8
-4 15 -2 15 4 0 15 -25 32 -36 24z"/>
<path d="M3221 3196 c-9 -10 -8 -15 1 -19 15 -5 40 17 31 27 -10 10 -20 7 -32
-8z"/>
<path d="M3440 3197 c0 -7 10 -17 22 -22 37 -17 34 -35 -6 -35 -20 0 -36 -5
-36 -11 0 -6 -15 -10 -32 -9 -50 3 -53 1 -32 -16 18 -14 18 -15 -6 -9 -17 4
-21 3 -11 -3 17 -12 0 -23 -19 -12 -12 7 -12 12 3 28 23 26 21 32 -10 32 -21
0 -24 -3 -14 -9 12 -8 12 -12 2 -25 -8 -9 -21 -16 -30 -17 -10 0 -11 -2 -3 -6
18 -7 15 -23 -5 -23 -15 0 -16 -2 -3 -10 8 -5 13 -10 10 -11 -3 0 -14 -2 -25
-4 -26 -5 -65 -27 -65 -36 0 -5 12 -4 26 1 16 7 23 7 19 0 -3 -6 1 -10 9 -10
8 0 17 8 19 18 4 13 5 12 6 -4 1 -25 -21 -38 -38 -21 -8 8 -11 7 -11 -6 0 -9
-4 -17 -10 -17 -5 0 -10 -4 -10 -10 0 -5 6 -7 14 -4 21 8 28 -25 10 -44 -15
-15 -16 -14 -9 8 l7 25 -26 -24 c-29 -28 -33 -36 -11 -27 17 6 19 -2 6 -23 -5
-7 -14 -10 -20 -7 -18 12 -12 43 11 58 18 12 20 18 11 30 -14 16 -18 73 -8
106 6 16 3 22 -9 22 -12 0 -15 -8 -12 -33 4 -31 -20 -77 -41 -77 -4 0 -13 -11
-19 -24 -8 -18 -7 -28 4 -42 13 -18 14 -18 8 6 -7 24 -7 24 9 5 9 -12 14 -30
11 -45 -3 -14 -3 -19 0 -12 15 33 46 -19 33 -55 -9 -24 -1 -63 13 -63 5 0 6 5
3 10 -8 13 1 13 26 -1 11 -5 17 -14 14 -20 -4 -5 1 -9 9 -9 10 0 13 6 10 18
-5 16 -4 16 9 -1 11 -13 16 -15 19 -5 3 8 9 5 17 -10 12 -22 11 -22 -35 -18
-26 3 -52 10 -57 15 -6 6 -19 11 -30 11 -15 0 -16 -2 -5 -13 16 -16 59 -28
110 -30 42 -2 89 -36 53 -38 -11 -1 -28 -1 -37 0 -24 3 -23 -11 2 -27 14 -8
19 -9 18 -1 -5 21 47 20 70 -1 27 -25 28 -25 63 5 17 14 37 22 47 19 12 -4 13
-3 4 3 -8 6 -10 17 -6 29 7 18 7 18 -13 1 -11 -10 -27 -15 -37 -11 -9 3 -16 1
-16 -5 0 -6 -8 -11 -17 -12 -12 0 -13 -2 -5 -6 7 -3 19 1 27 7 10 8 15 9 15 2
0 -6 -9 -16 -20 -22 -16 -8 -24 -8 -35 3 -12 12 -10 16 11 25 26 13 32 32 10
32 -21 0 -30 18 -17 34 7 9 7 16 -2 26 -10 12 -9 12 6 0 10 -7 16 -19 13 -26
-3 -9 0 -11 11 -7 12 5 14 3 8 -6 -7 -13 10 -31 30 -31 6 0 5 4 -2 8 -8 5 -8
12 2 25 11 15 17 17 32 7 15 -10 16 -11 1 -6 -10 3 -20 1 -23 -4 -4 -6 -2 -10
4 -10 5 0 15 -2 23 -5 8 -3 18 5 24 23 7 19 18 28 35 29 l24 2 -25 -14 c-19
-11 -21 -14 -8 -15 12 0 15 -5 11 -16 -5 -13 -2 -15 18 -9 66 21 69 23 65 55
-2 18 3 37 10 45 18 17 18 26 0 19 -15 -6 -29 33 -15 42 5 3 9 12 9 20 0 14
-2 13 -16 0 -9 -10 -13 -24 -9 -35 4 -14 0 -23 -15 -31 -13 -7 -20 -7 -20 0 0
5 5 10 10 10 6 0 10 4 10 10 0 5 -7 7 -15 4 -22 -9 -18 9 6 24 12 8 18 19 15
30 -3 9 -1 24 5 32 8 12 9 10 4 -7 -7 -24 9 -33 18 -10 4 10 6 10 6 0 2 -24
22 -13 35 20 16 37 21 137 7 137 -5 0 -8 -16 -6 -35 2 -19 -1 -35 -6 -35 -5 0
-9 10 -10 23 0 21 -1 21 -9 2 -7 -18 -8 -17 -15 10 -7 23 -9 26 -14 11 -6 -16
-9 -15 -34 8 -15 14 -27 30 -27 36 0 15 33 8 47 -10 14 -18 26 -9 17 14 -4 9
-17 16 -33 16 -23 0 -61 29 -61 46 0 9 -63 74 -72 74 -4 0 -8 -6 -8 -13z m78
-92 l3 -20 -17 20 c-14 16 -16 17 -11 3 7 -20 -3 -24 -20 -7 -9 9 -11 7 -6 -9
3 -12 12 -27 19 -33 12 -10 13 -9 8 5 -4 12 -1 16 15 16 23 0 47 -35 31 -45
-5 -3 -10 3 -10 14 0 12 -5 21 -11 21 -6 0 -9 -7 -5 -15 3 -8 0 -15 -7 -16 -7
0 -22 -2 -34 -5 -13 -2 -23 3 -27 12 -4 11 -2 15 8 11 13 -5 13 -2 4 18 -6 14
-15 25 -20 25 -5 0 -6 -5 -2 -11 4 -8 0 -9 -15 -4 -15 4 -20 2 -18 -7 2 -7 2
-10 0 -5 -10 17 -24 5 -17 -15 6 -22 6 -22 -12 -3 -14 13 -15 20 -6 23 7 2 19
11 27 19 36 35 118 41 123 8z m-190 -52 c-2 -10 -14 -19 -26 -21 -21 -3 -22
-1 -12 17 13 26 43 28 38 4z m38 -18 c9 -8 11 -15 6 -15 -5 0 -15 7 -22 15 -7
8 -9 15 -6 15 4 0 14 -7 22 -15z m68 -1 c3 -8 2 -12 -4 -9 -6 3 -10 10 -10 16
0 14 7 11 14 -7z m-114 -30 c0 -2 -9 -4 -20 -4 -11 0 -20 4 -20 9 0 5 9 7 20
4 11 -3 20 -7 20 -9z m171 -11 c-12 -20 -14 -14 -5 12 4 9 9 14 11 11 3 -2 0
-13 -6 -23z m39 12 c0 -8 -2 -15 -4 -15 -2 0 -6 7 -10 15 -3 8 -1 15 4 15 6 0
10 -7 10 -15z m23 -5 c-3 -11 -7 -20 -9 -20 -2 0 -4 9 -4 20 0 11 4 20 9 20 5
0 7 -9 4 -20z m24 -17 c-3 -10 -5 -4 -5 12 0 17 2 24 5 18 2 -7 2 -21 0 -30z
m-158 19 c27 -2 95 -67 86 -82 -3 -5 -2 -10 3 -10 5 0 7 -13 4 -30 -2 -16 -8
-30 -13 -30 -5 0 -5 -8 -2 -17 5 -12 2 -15 -10 -10 -9 3 -21 -1 -29 -10 -11
-14 -11 -16 4 -10 12 4 15 2 11 -9 -3 -7 -14 -14 -25 -14 -10 0 -16 4 -13 10
3 6 -1 7 -9 4 -9 -3 -14 -9 -13 -12 2 -8 -7 -12 -25 -12 -9 0 -8 4 2 10 10 6
11 10 3 10 -20 0 -28 -4 -25 -14 3 -8 -16 -5 -50 9 -14 5 -18 2 -18 -14 0 -12
-4 -21 -9 -21 -11 0 -9 33 3 41 4 4 3 16 -4 28 -9 17 -14 20 -25 11 -9 -8 -15
-8 -20 0 -3 5 0 10 8 10 17 0 29 34 16 47 -23 23 59 120 100 117 15 0 37 -2
50 -2z m191 -21 c0 -11 -4 -22 -9 -25 -5 -3 -8 5 -7 19 1 29 16 34 16 6z m25
-28 c-5 -26 -5 -26 4 -5 6 12 13 22 16 22 9 0 5 -34 -5 -50 -9 -13 -11 -13
-20 0 -13 20 -13 60 0 60 6 0 8 -12 5 -27z m-475 -5 c0 -13 -5 -30 -10 -38 -9
-13 -11 -13 -20 0 -13 20 -13 40 1 40 5 0 7 -4 4 -10 -3 -5 -1 -10 5 -10 7 0
9 8 5 20 -4 11 -2 20 4 20 6 0 11 -10 11 -22z m384 -3 c-4 -8 -10 -15 -15 -15
-4 0 -6 7 -3 15 4 8 10 15 15 15 4 0 6 -7 3 -15z m21 -5 c-4 -11 -2 -20 4 -20
6 0 11 5 11 12 0 6 3 9 6 5 3 -3 2 -13 -3 -22 -8 -14 -11 -14 -21 -2 -7 8 -10
22 -6 31 9 23 17 20 9 -4z m-320 -79 c-6 -5 -25 10 -25 20 0 5 6 4 14 -3 8 -7
12 -15 11 -17z m310 19 c-3 -5 -12 -10 -18 -10 -7 0 -6 4 3 10 19 12 23 12 15
0z m-330 -30 c3 -6 -1 -7 -9 -4 -18 7 -21 14 -7 14 6 0 13 -4 16 -10z m-14
-53 c-7 -18 -7 -27 2 -31 7 -2 2 -5 -10 -5 -18 -1 -23 5 -23 24 0 16 6 25 15
25 8 0 15 5 15 12 0 6 2 9 5 6 3 -3 1 -17 -4 -31z m337 -11 c-23 -17 -23 -27
-1 -19 11 4 14 3 9 -5 -4 -7 -16 -12 -26 -12 -14 0 -18 5 -13 18 7 19 23 32
38 32 6 -1 2 -7 -7 -14z m66 0 c-5 -13 -44 -30 -44 -19 0 7 33 32 42 33 4 0 5
-6 2 -14z m-348 -23 c3 -16 -1 -20 -15 -16 -11 3 -21 14 -24 25 -4 15 -1 19
15 16 13 -2 22 -12 24 -25z m234 -3 c0 -5 -7 -7 -15 -4 -8 4 -15 8 -15 10 0 2
7 4 15 4 8 0 15 -4 15 -10z m-136 -40 c-6 -5 -24 21 -24 34 0 6 6 1 14 -10 8
-10 12 -21 10 -24z m247 -1 c-12 -13 -54 -22 -47 -10 4 6 14 11 22 11 8 0 14
5 14 11 0 6 -7 9 -15 5 -8 -3 -15 -1 -15 4 0 5 8 10 18 12 17 4 35 -22 23 -33z
m-186 20 c11 -16 1 -19 -13 -3 -7 8 -8 14 -3 14 5 0 13 -5 16 -11z m70 -10
c-7 -10 -35 -1 -35 11 0 5 9 6 20 3 11 -3 17 -9 15 -14z m-175 1 c-18 -12 -30
-13 -30 -2 0 4 10 9 22 9 18 2 20 0 8 -7z m20 -21 c0 -5 -4 -7 -10 -4 -5 3
-10 2 -10 -3 0 -5 14 -12 30 -15 33 -7 39 -21 13 -32 -23 -8 -69 45 -50 57 17
11 27 10 27 -3z"/>
<path d="M3345 2980 c-3 -6 1 -7 9 -4 18 7 21 14 7 14 -6 0 -13 -4 -16 -10z"/>
<path d="M3295 3190 c-4 -6 5 -10 20 -10 15 0 24 4 20 10 -3 6 -12 10 -20 10
-8 0 -17 -4 -20 -10z"/>
<path d="M3356 3179 c3 -6 0 -16 -6 -24 -15 -18 -10 -18 25 -5 29 11 27 25 -5
33 -11 3 -17 1 -14 -4z"/>
<path d="M3310 3160 c0 -5 5 -10 10 -10 6 0 10 5 10 10 0 6 -4 10 -10 10 -5 0
-10 -4 -10 -10z"/>
<path d="M3553 3151 l-22 -6 20 -25 20 -25 -12 25 c-9 21 -9 23 2 13 17 -17
29 -16 29 1 0 20 -10 24 -37 17z"/>
<path d="M3247 3143 c-4 -3 -7 -15 -7 -25 0 -17 1 -17 20 -1 11 10 20 21 20
25 0 10 -24 11 -33 1z"/>
<path d="M3176 3124 c-5 -12 -2 -15 10 -10 8 3 18 6 20 6 2 0 4 5 4 10 0 16
-27 11 -34 -6z"/>
<path d="M3734 3133 c4 -8 -4 -24 -18 -38 -28 -28 -37 -56 -10 -35 8 8 14 9
12 3 -2 -6 2 -11 7 -10 6 0 9 9 7 19 -3 17 -1 18 17 8 12 -6 21 -16 22 -23 1
-14 17 22 18 41 1 6 -4 12 -10 12 -6 0 -9 -7 -5 -15 3 -8 1 -15 -4 -15 -6 0
-11 5 -11 10 -1 6 -2 14 -3 20 0 5 -7 15 -15 22 -10 9 -12 10 -7 1z"/>
<path d="M3632 3118 c5 -15 28 -18 29 -3 0 6 -7 12 -17 13 -10 3 -15 -1 -12
-10z"/>
<path d="M3270 3110 c0 -5 5 -10 10 -10 6 0 10 5 10 10 0 6 -4 10 -10 10 -5 0
-10 -4 -10 -10z"/>
<path d="M3208 3083 c-10 -2 -18 -8 -18 -13 0 -5 7 -7 15 -4 10 4 15 0 15 -12
0 -17 1 -16 15 2 25 33 18 39 -27 27z"/>
<path d="M3061 3058 c-1 -10 -8 -18 -16 -18 -8 0 -15 -4 -15 -10 0 -5 7 -10
15 -10 18 0 29 23 22 42 -4 8 -6 6 -6 -4z"/>
<path d="M3630 3060 c0 -5 5 -10 11 -10 5 0 7 5 4 10 -3 6 -8 10 -11 10 -2 0
-4 -4 -4 -10z"/>
<path d="M3103 3033 c-16 -6 -17 -33 -3 -33 11 0 26 28 19 34 -2 2 -10 1 -16
-1z"/>
<path d="M3756 3010 c-17 -6 -18 -7 -3 -13 10 -4 17 -1 18 6 0 7 4 3 9 -8 7
-16 9 -17 9 -3 1 22 -9 27 -33 18z"/>
<path d="M3704 2995 c13 -10 17 -22 14 -40 -4 -19 -2 -25 8 -21 8 3 14 0 14
-6 0 -6 3 -8 6 -5 4 4 1 13 -5 21 -7 8 -10 20 -6 26 7 11 -22 39 -40 39 -5 0
-2 -6 9 -14z"/>
<path d="M3047 2974 c-4 -4 -7 -13 -7 -21 0 -14 34 -13 47 2 5 4 3 5 -4 1 -6
-3 -16 1 -20 9 -5 9 -12 12 -16 9z"/>
<path d="M3686 2943 c-5 -16 -3 -29 5 -34 10 -6 10 -13 1 -33 -6 -14 -8 -26
-3 -26 4 0 13 12 20 27 9 20 9 28 0 34 -6 4 -10 18 -7 33 7 34 -8 34 -16 -1z"/>
<path d="M3762 2901 c0 -25 2 -31 10 -23 8 8 8 18 1 34 -9 21 -10 20 -11 -11z"/>
<path d="M3057 2908 c5 -7 9 -25 8 -40 -1 -21 2 -25 12 -16 17 14 16 36 -1 54
-18 17 -32 19 -19 2z"/>
<path d="M2940 2890 c0 -5 9 -10 20 -10 11 0 20 5 20 10 0 6 -9 10 -20 10 -11
0 -20 -4 -20 -10z"/>
<path d="M3000 2875 c0 -14 6 -25 13 -25 21 0 27 11 16 31 -14 27 -29 23 -29
-6z"/>
<path d="M3658 2878 c-10 -12 -14 -24 -10 -27 11 -8 32 -83 26 -93 -3 -4 0 -8
7 -8 7 0 9 9 6 22 -4 14 0 29 10 40 10 11 12 18 5 18 -7 0 -12 -4 -12 -10 0
-5 -4 -10 -8 -10 -5 0 -7 20 -6 45 2 25 2 45 1 45 -1 0 -10 -10 -19 -22z"/>
<path d="M2940 2864 c0 -8 30 -57 30 -49 0 6 3 19 6 30 4 16 0 21 -15 21 -12
0 -21 -1 -21 -2z"/>
<path d="M3717 2863 c-4 -3 -7 -11 -7 -17 0 -6 5 -5 12 2 6 6 9 14 7 17 -3 3
-9 2 -12 -2z"/>
<path d="M3810 2839 c0 -5 5 -7 10 -4 6 3 10 8 10 11 0 2 -4 4 -10 4 -5 0 -10
-5 -10 -11z"/>
<path d="M3840 2835 c0 -8 2 -15 4 -15 2 0 6 7 10 15 3 8 1 15 -4 15 -6 0 -10
-7 -10 -15z"/>
<path d="M3717 2811 c-23 -40 -21 -49 4 -17 11 14 19 31 17 36 -2 6 -11 -2
-21 -19z"/>
<path d="M3768 2825 c5 -11 7 -27 4 -35 -5 -13 -3 -13 11 -1 10 7 17 18 17 24
0 6 -3 7 -7 4 -3 -4 -12 1 -20 11 -13 16 -13 15 -5 -3z"/>
<path d="M3046 2814 c-7 -18 0 -34 15 -34 12 0 12 37 0 44 -5 3 -12 -1 -15
-10z"/>
<path d="M3110 2816 c0 -8 -3 -21 -6 -30 -3 -9 -1 -16 6 -16 6 0 8 5 4 11 -4
8 1 9 16 4 21 -7 21 -6 5 19 -20 30 -25 32 -25 12z"/>
<path d="M2987 2813 c-11 -10 -8 -81 3 -88 6 -4 9 4 7 17 -1 12 3 23 11 23 13
0 13 3 5 35 -5 20 -15 25 -26 13z"/>
<path d="M3817 2799 c-3 -10 -2 -20 1 -23 9 -10 42 -7 42 3 0 5 3 16 6 24 4
10 -2 15 -20 15 -15 0 -26 -7 -29 -19z"/>
<path d="M3645 2769 c-4 -6 -5 -12 -2 -15 2 -3 7 2 10 11 7 17 1 20 -8 4z"/>
<path d="M3100 2748 c0 -18 18 -34 28 -24 3 4 -2 14 -11 23 -16 16 -17 16 -17
1z"/>
<path d="M3734 2751 c4 -5 0 -11 -6 -14 -7 -2 -10 -8 -6 -12 4 -4 11 -4 17 0
14 8 14 35 0 35 -5 0 -8 -4 -5 -9z"/>
<path d="M3780 2745 c-14 -17 -5 -65 12 -65 9 0 9 3 0 12 -7 7 -12 19 -11 28
0 10 2 11 6 3 8 -21 18 -15 18 12 0 29 -7 31 -25 10z"/>
<path d="M3827 2753 c-4 -3 -7 -11 -7 -17 0 -6 5 -5 12 2 6 6 9 14 7 17 -3 3
-9 2 -12 -2z"/>
<path d="M3047 2734 c-10 -17 4 -63 19 -57 8 3 14 11 14 17 0 18 -26 50 -33
40z"/>
<path d="M3640 2729 c0 -5 5 -7 10 -4 6 3 10 8 10 11 0 2 -4 4 -10 4 -5 0 -10
-5 -10 -11z"/>
<path d="M3630 2689 c0 -5 5 -7 10 -4 6 3 10 8 10 11 0 2 -4 4 -10 4 -5 0 -10
-5 -10 -11z"/>
<path d="M3112 2665 c7 -17 19 -25 35 -25 24 0 24 0 -5 25 -17 14 -33 25 -36
25 -3 0 0 -11 6 -25z"/>
<path d="M3595 2680 c-3 -5 -2 -10 4 -10 5 0 13 5 16 10 3 6 2 10 -4 10 -5 0
-13 -4 -16 -10z"/>
<path d="M3670 2679 c0 -5 5 -7 10 -4 6 3 10 8 10 11 0 2 -4 4 -10 4 -5 0 -10
-5 -10 -11z"/>
<path d="M3175 2670 c3 -5 8 -10 11 -10 2 0 4 5 4 10 0 6 -5 10 -11 10 -5 0
-7 -4 -4 -10z"/>
<path d="M3634 2665 c-17 -13 -17 -14 -2 -15 9 0 20 5 23 11 11 17 0 20 -21 4z"/>
<path d="M3518 2649 c-21 -23 -23 -30 -5 -23 14 5 41 44 30 43 -5 0 -16 -9
-25 -20z"/>
<path d="M3580 2650 c-8 -5 -11 -12 -8 -16 10 -9 38 3 38 16 0 12 -10 13 -30
0z"/>
<path d="M3058 2644 c-4 -5 7 -28 23 -52 16 -23 29 -45 29 -48 0 -3 6 -12 14
-20 10 -10 17 -11 22 -3 4 8 9 7 15 -2 4 -7 11 -10 15 -6 10 10 -46 68 -59 60
-11 -6 -27 15 -27 36 0 11 4 9 16 -5 8 -10 12 -13 8 -5 -3 7 0 17 7 22 10 6 4
9 -18 9 -17 0 -33 5 -35 12 -3 7 -7 8 -10 2z m82 -104 c0 -5 -2 -10 -4 -10 -3
0 -8 5 -11 10 -3 6 -1 10 4 10 6 0 11 -4 11 -10z"/>
<path d="M3186 2635 c4 -9 19 -15 38 -15 l31 1 -34 14 c-41 18 -42 18 -35 0z"/>
<path d="M3622 2614 c4 -4 0 -13 -10 -20 -16 -12 -16 -13 3 -14 42 0 53 30 15
38 -8 2 -12 0 -8 -4z"/>
<path d="M3480 2595 c-7 -9 -11 -18 -8 -20 3 -3 11 1 18 10 7 9 11 18 8 20 -3
3 -11 -1 -18 -10z"/>
<path d="M3150 2595 c0 -3 8 -17 17 -31 l17 -26 8 22 c4 12 6 26 2 31 -6 10
-44 13 -44 4z"/>
<path d="M3420 2590 c0 -5 10 -10 23 -10 18 0 19 2 7 10 -19 13 -30 13 -30 0z"/>
<path d="M3230 2581 c0 -16 25 -30 39 -22 11 7 9 11 -7 20 -25 13 -32 14 -32
2z"/>
<path d="M3321 2574 c8 -10 16 -11 30 -3 26 13 24 16 -11 16 -23 0 -27 -3 -19
-13z"/>
<path d="M3531 2581 c-9 -6 -10 -11 -2 -15 13 -8 31 1 31 15 0 11 -11 11 -29
0z"/>
<path d="M3567 2555 c-5 -11 0 -15 16 -15 12 0 18 4 12 8 -5 4 -13 11 -16 15
-4 4 -9 1 -12 -8z"/>
<path d="M3388 2538 c6 -6 23 -5 43 0 l34 10 -43 -1 c-25 0 -39 -4 -34 -9z"/>
<path d="M3493 2544 c4 -4 -1 -13 -11 -20 -15 -12 -13 -13 18 -13 19 0 29 3
22 6 -6 2 -10 8 -7 13 3 4 -3 11 -12 14 -10 4 -14 4 -10 0z"/>
<path d="M3330 2531 c0 -6 -10 -11 -22 -11 -23 -1 -23 -1 2 -15 32 -18 37 -18
43 -1 3 8 -1 20 -9 26 -10 9 -14 9 -14 1z"/>
<path d="M3540 2532 c0 -15 32 -24 44 -12 7 7 7 10 -1 10 -6 0 -18 3 -27 6 -9
3 -16 2 -16 -4z"/>
<path d="M3610 2525 c-11 -13 -10 -14 4 -9 9 3 16 10 16 15 0 13 -6 11 -20 -6z"/>
<path d="M3421 2506 c-9 -10 -8 -15 4 -20 10 -4 15 1 15 14 0 24 -4 25 -19 6z"/>
<path d="M3474 2481 c3 -5 15 -7 26 -4 27 7 25 -5 -2 -17 -18 -7 -19 -9 -5 -9
9 -1 26 8 37 19 l20 20 -41 0 c-22 0 -38 -4 -35 -9z"/>
<path d="M3410 2466 c19 -8 39 -11 44 -8 13 7 -23 21 -54 21 -22 -1 -20 -2 10
-13z"/>
</g>
</svg>
